HIERARCHY
ROOT Reference
{
  OFFSET 0 0 0
  CHANNELS 6 Xposition Yposition Zposition Zrotation Xrotation Yrotation
  JOINT Hips
  {
    OFFSET 251.394 724.17 483.536
    CHANNELS 3 Zrotation Xrotation Yrotation
    JOINT RightUpLeg
    {
      OFFSET -0.450515 -23.4426 -1.37224
      CHANNELS 3 Zrotation Xrotation Yrotation
      JOINT RightLeg
      {
        OFFSET 112.821 0.0872427 -0.321027
        CHANNELS 3 Zrotation Xrotation Yrotation
        JOINT RightFoot
        {
          OFFSET 105.718 0.000193788 0.0213165
          CHANNELS 3 Zrotation Xrotation Yrotation
          JOINT RightToeBase
          {
            OFFSET 37.638 -0.000116272 0.00224792
            CHANNELS 3 Zrotation Xrotation Yrotation
            JOINT RightToeEnd
            {
              OFFSET 21.2112 0.114605 -0.000138184
              CHANNELS 3 Zrotation Xrotation Yrotation
              End Site
              {
                OFFSET 0 0 0
              }
            }
          }
        }
      }
    }
    JOINT LeftUpLeg
    {
      OFFSET -0.449508 23.4315 -1.37054
      CHANNELS 3 Zrotation Xrotation Yrotation
      JOINT LeftLeg
      {
        OFFSET 112.821 -0.0485242 -0.372458
        CHANNELS 3 Zrotation Xrotation Yrotation
        JOINT LeftFoot
        {
          OFFSET 105.716 0.00496094 -0.0229443
          CHANNELS 3 Zrotation Xrotation Yrotation
          JOINT LeftToeBase
          {
            OFFSET 37.639 0 0.00158905
            CHANNELS 3 Zrotation Xrotation Yrotation
            JOINT LeftToeEnd
            {
              OFFSET 21.2113 -0.125031 -0.00017438
              CHANNELS 3 Zrotation Xrotation Yrotation
              End Site
              {
                OFFSET 0 0 0
              }
            }
          }
        }
      }
    }
    JOINT Spine
    {
      OFFSET -5.01225 0.000463591 -9.60395
      CHANNELS 3 Zrotation Xrotation Yrotation
      JOINT Spine1
      {
        OFFSET 26.0222 -0.000271301 -0.000155029
        CHANNELS 3 Zrotation Xrotation Yrotation
        JOINT Spine2
        {
          OFFSET 27.173 -0.000155029 -0.000310058
          CHANNELS 3 Zrotation Xrotation Yrotation
          JOINT Spine3
          {
            OFFSET 36.3953 -0.000232544 7.75146e-005
            CHANNELS 3 Zrotation Xrotation Yrotation
            JOINT Neck
            {
              OFFSET 36.4331 0 -3.00261
              CHANNELS 3 Zrotation Xrotation Yrotation
              JOINT Head
              {
                OFFSET 23.0407 -0.000232544 -0.000310058
                CHANNELS 3 Zrotation Xrotation Yrotation
                End Site
                {
                  OFFSET 0 0 0
                }
              }
            }
            JOINT LeftShoulder
            {
              OFFSET 20.1317 6.74168 -12.6061
              CHANNELS 3 Zrotation Xrotation Yrotation
              JOINT LeftArm
              {
                OFFSET 34.2172 -5.81359e-005 7.75146e-005
                CHANNELS 3 Zrotation Xrotation Yrotation
                JOINT LeftForeArm
                {
                  OFFSET 65.4129 -0.0821605 0.0585235
                  CHANNELS 3 Zrotation Xrotation Yrotation
                  JOINT LeftHand
                  {
                    OFFSET 67.3883 0.0359667 0.0112396
                    CHANNELS 3 Zrotation Xrotation Yrotation
                    JOINT LeftHandThumb1
                    {
                      OFFSET 8.78386 2.85353 -6.05362
                      CHANNELS 3 Zrotation Xrotation Yrotation
                      JOINT LeftHandThumb2
                      {
                        OFFSET 8.25498 -0.000116272 -0.000174407
                        CHANNELS 3 Zrotation Xrotation Yrotation
                        JOINT LeftHandThumb3
                        {
                          OFFSET 7.24822 0.000310058 5.81358e-005
                          CHANNELS 3 Zrotation Xrotation Yrotation
                          JOINT LeftHandThumb4
                          {
                            OFFSET 7.0004 -3.87568e-005 -0.000310057
                            CHANNELS 3 Zrotation Xrotation Yrotation
                            End Site
                            {
                              OFFSET 0 0 0
                            }
                          }
                        }
                      }
                    }
                    JOINT LeftHandIndex1
                    {
                      OFFSET 24.0991 -1.01537 -5.40558
                      CHANNELS 3 Zrotation Xrotation Yrotation
                      JOINT LeftHandIndex2
                      {
                        OFFSET 7.26759 -0.000290679 -0.000465086
                        CHANNELS 3 Zrotation Xrotation Yrotation
                        JOINT LeftHandIndex3
                        {
                          OFFSET 7.13628 -1.93787e-005 0.000232543
                          CHANNELS 3 Zrotation Xrotation Yrotation
                          JOINT LeftHandIndex4
                          {
                            OFFSET 5.46699 9.68932e-005 -0.000387571
                            CHANNELS 3 Zrotation Xrotation Yrotation
                            End Site
                            {
                              OFFSET 0 0 0
                            }
                          }
                        }
                      }
                    }
                    JOINT LeftHandMiddle1
                    {
                      OFFSET 24.4604 -2.52837 0.918567
                      CHANNELS 3 Zrotation Xrotation Yrotation
                      JOINT LeftHandMiddle2
                      {
                        OFFSET 7.41627 -5.81359e-005 0.000116271
                        CHANNELS 3 Zrotation Xrotation Yrotation
                        JOINT LeftHandMiddle3
                        {
                          OFFSET 8.76829 3.87573e-005 -7.75142e-005
                          CHANNELS 3 Zrotation Xrotation Yrotation
                          JOINT LeftHandMiddle4
                          {
                            OFFSET 6.07588 -0.00013565 -5.81356e-005
                            CHANNELS 3 Zrotation Xrotation Yrotation
                            End Site
                            {
                              OFFSET 0 0 0
                            }
                          }
                        }
                      }
                    }
                    JOINT LeftHandRing1
                    {
                      OFFSET 22.465 -1.97467 6.3466
                      CHANNELS 3 Zrotation Xrotation Yrotation
                      JOINT LeftHandRing2
                      {
                        OFFSET 7.36666 -0.000232544 0.000387571
                        CHANNELS 3 Zrotation Xrotation Yrotation
                        JOINT LeftHandRing3
                        {
                          OFFSET 8.07624 -0.000465087 -0.000203475
                          CHANNELS 3 Zrotation Xrotation Yrotation
                          JOINT LeftHandRing4
                          {
                            OFFSET 6.04433 0.00013565 3.87571e-005
                            CHANNELS 3 Zrotation Xrotation Yrotation
                            End Site
                            {
                              OFFSET 0 0 0
                            }
                          }
                        }
                      }
                    }
                    JOINT LeftHandPinky1
                    {
                      OFFSET 19.5278 0.352933 10.4295
                      CHANNELS 3 Zrotation Xrotation Yrotation
                      JOINT LeftHandPinky2
                      {
                        OFFSET 6.16525 5.8136e-005 -0.000251921
                        CHANNELS 3 Zrotation Xrotation Yrotation
                        JOINT LeftHandPinky3
                        {
                          OFFSET 6.14448 -0.000329434 -0.00510625
                          CHANNELS 3 Zrotation Xrotation Yrotation
                          JOINT LeftHandPinky4
                          {
                            OFFSET 4.98555 0.000116272 0.000116271
                            CHANNELS 3 Zrotation Xrotation Yrotation
                            End Site
                            {
                              OFFSET 0 0 0
                            }
                          }
                        }
                      }
                    }
                  }
                }
              }
            }
            JOINT RightShoulder
            {
              OFFSET 20.1309 -6.74152 -12.6063
              CHANNELS 3 Zrotation Xrotation Yrotation
              JOINT RightArm
              {
                OFFSET 34.2171 7.75146e-005 7.75146e-005
                CHANNELS 3 Zrotation Xrotation Yrotation
                JOINT RightForeArm
                {
                  OFFSET 65.4492 0.242543 -0.176501
                  CHANNELS 3 Zrotation Xrotation Yrotation
                  JOINT RightHand
                  {
                    OFFSET 67.3888 -0.0867388 0.0597442
                    CHANNELS 3 Zrotation Xrotation Yrotation
                    JOINT RightHandThumb1
                    {
                      OFFSET 8.78307 -2.85357 -6.05302
                      CHANNELS 3 Zrotation Xrotation Yrotation
                      JOINT RightHandThumb2
                      {
                        OFFSET 8.25493 -7.75145e-005 0
                        CHANNELS 3 Zrotation Xrotation Yrotation
                        JOINT RightHandThumb3
                        {
                          OFFSET 7.24797 -0.000174408 0.000155029
                          CHANNELS 3 Zrotation Xrotation Yrotation
                          JOINT RightHandThumb4
                          {
                            OFFSET 7.00062 0 0
                            CHANNELS 3 Zrotation Xrotation Yrotation
                            End Site
                            {
                              OFFSET 0 0 0
                            }
                          }
                        }
                      }
                    }
                    JOINT RightHandIndex1
                    {
                      OFFSET 24.0991 1.01525 -5.40578
                      CHANNELS 3 Zrotation Xrotation Yrotation
                      JOINT RightHandIndex2
                      {
                        OFFSET 7.26773 7.75144e-005 0.000232543
                        CHANNELS 3 Zrotation Xrotation Yrotation
                        JOINT RightHandIndex3
                        {
                          OFFSET 7.13572 -0.000310058 3.87571e-005
                          CHANNELS 3 Zrotation Xrotation Yrotation
                          JOINT RightHandIndex4
                          {
                            OFFSET 5.46717 0 3.87572e-005
                            CHANNELS 3 Zrotation Xrotation Yrotation
                            End Site
                            {
                              OFFSET 0 0 0
                            }
                          }
                        }
                      }
                    }
                    JOINT RightHandMiddle1
                    {
                      OFFSET 24.4603 2.52899 0.918547
                      CHANNELS 3 Zrotation Xrotation Yrotation
                      JOINT RightHandMiddle2
                      {
                        OFFSET 7.41641 -0.000116272 -0.000116272
                        CHANNELS 3 Zrotation Xrotation Yrotation
                        JOINT RightHandMiddle3
                        {
                          OFFSET 8.76765 -3.87577e-005 0.000232543
                          CHANNELS 3 Zrotation Xrotation Yrotation
                          JOINT RightHandMiddle4
                          {
                            OFFSET 6.07609 -0.000193787 -0.000116271
                            CHANNELS 3 Zrotation Xrotation Yrotation
                            End Site
                            {
                              OFFSET 0 0 0
                            }
                          }
                        }
                      }
                    }
                    JOINT RightHandRing1
                    {
                      OFFSET 22.465 1.97571 6.34696
                      CHANNELS 3 Zrotation Xrotation Yrotation
                      JOINT RightHandRing2
                      {
                        OFFSET 7.36684 0.000193786 0.000155029
                        CHANNELS 3 Zrotation Xrotation Yrotation
                        JOINT RightHandRing3
                        {
                          OFFSET 8.07614 -0.000271301 0
                          CHANNELS 3 Zrotation Xrotation Yrotation
                          JOINT RightHandRing4
                          {
                            OFFSET 6.04468 0.000232543 0
                            CHANNELS 3 Zrotation Xrotation Yrotation
                            End Site
                            {
                              OFFSET 0 0 0
                            }
                          }
                        }
                      }
                    }
                    JOINT RightHandPinky1
                    {
                      OFFSET 19.5277 -0.352346 10.4296
                      CHANNELS 3 Zrotation Xrotation Yrotation
                      JOINT RightHandPinky2
                      {
                        OFFSET 6.16508 0 0.000232543
                        CHANNELS 3 Zrotation Xrotation Yrotation
                        JOINT RightHandPinky3
                        {
                          OFFSET 6.14396 -0.000155048 -0.0048834
                          CHANNELS 3 Zrotation Xrotation Yrotation
                          JOINT RightHandPinky4
                          {
                            OFFSET 4.98577 -7.75146e-005 -7.75143e-005
                            CHANNELS 3 Zrotation Xrotation Yrotation
                            End Site
                            {
                              OFFSET 0 0 0
                            }
                          }
                        }
                      }
                    }
                  }
                }
              }
            }
          }
        }
      }
    }
  }
}
MOTION
Frames:	4
Frame Time:	0.0333333
0 0 0 -90 -7.01671e-015 -180 0.070362 -10.8422 -116.364 -179.247 -1.89161 -105.138 -1.91838 -4.6236 -22.6157 -0.905559 -1.65716 44.9255 -0.491045 0.0604109 56.6891 9.45693e-005 -0.000144819 -86.4974 178.156 5.33484 -109.597 -1.75111 -4.44216 -21.6662 3.3508 -7.12393 48.1785 0.588139 -0.149582 54.9057 -9.94155e-006 -5.20211e-006 -86.4975 0.0450135 -0.198664 125.655 -0.153473 -4.37405 -9.83307 -7.69692 -3.88287 -11.2603 -1.33266 -0.276764 -3.95569 -3.71875 5.94137 24.6578 -0.774939 9.67712 48.1379 92.4384 18.4164 -15.9135 67.2384 27.7819 15.001 -2.55241 8.16692 86.671 -3.06988 -73.6691 -22.0623 -158.093 -1.40751 157.679 0.000320149 -9.55617e-005 13.678 0.000128568 -0.000133179 9.9059 0.000482647 -0.00133992 -0.000154314 69.8781 85.3955 -70.5252 -0.000330559 -0.000214327 1.78921 0.000681436 -0.000920389 -5.00412 -0.000622052 -0.000522768 -1.58327 7.67666 87.8816 6.67178 -1.5576e-005 -0.00030594 4.68437 0.00067666 -0.000800669 2.0308 -0.000375599 -0.000196028 -1.56293 -60.3848 87.5865 83.0092 -0.000120091 -0.000700388 5.89161 0.00733887 -4.21219e-005 6.05942 -0.000672426 -0.000692886 -1.42266 -60.7203 85.5013 83.6074 0.00092148 -0.00142795 7.11288 -0.0182202 -0.00208616 5.88193 4.07556e-005 -5.55533e-005 -1.57603 -113.238 -19.6222 -35.4695 -61.7165 -7.8434 3.37008 -4.36582 22.7344 100.652 53.141 49.5535 -17.9666 158.653 1.25265 145.526 -0.000155696 -0.000173883 0.408386 1.94843e-005 -0.000309043 -26.2175 -0.000107053 1.52569e-005 -179.093 -36.2943 -86.4945 36.705 0.000220123 -0.000401735 57.9017 -0.000104071 0.000466591 71.1807 -9.65121e-005 -0.00012197 177.672 -55.7193 -79.6975 23.3962 -4.80284e-005 1.88272e-005 51.7339 -0.00049417 0.000743669 69.7055 -5.38351e-005 -0.0001982 177.672 -73.1293 -74.7291 8.48292 6.80939e-005 -0.000205642 52.0818 -0.000506239 0.000848844 70.0746 -3.36171e-005 -7.62309e-005 177.672 -83.5133 -70.0307 -1.08876 -0.000321307 0.000795334 54.4994 -0.000170647 0.000328699 69.8299 -0.000119591 6.09848e-005 177.672 
0 0 0 -90 -7.01671e-015 -180 0.191853 -10.9059 -116.358 -179.204 -1.78059 -105.202 -1.92127 -4.65641 -22.5032 -0.903153 -1.67727 44.8589 -0.491045 0.0603842 56.6891 9.45905e-005 -0.000202557 -86.4974 178.223 5.4305 -109.56 -1.78048 -4.4858 -21.7993 3.3823 -7.14966 48.2545 0.58814 -0.149595 54.9057 -9.94641e-006 -6.23363e-005 -86.4975 0.0440445 -0.195786 125.51 -0.185069 -4.34805 -9.7229 -7.72628 -3.88029 -11.1429 -1.36056 -0.266998 -3.87644 -3.72511 5.95288 24.5898 -0.7598 9.68921 48.0743 92.4384 18.4164 -15.9135 67.2068 27.7558 14.8493 -2.61317 8.86817 86.5174 -3.09775 -73.82 -22.0914 -158.014 -1.41886 158.326 0.000323115 -9.65149e-005 13.5019 0.000134324 -0.000123735 10.0243 0.000482649 -0.00140005 -0.000154313 72.8618 85.2442 -72.2257 -0.000333085 -0.000220171 2.00497 0.0007011 -0.000914188 -4.21824 -0.00062172 -0.000523152 -1.51098 8.6111 87.9946 6.6351 -8.57052e-006 -0.000308285 5.21819 0.00069141 -0.000798881 2.72167 -0.000385542 -0.000250736 -1.48841 -60.0476 87.568 83.3314 -0.000109584 -0.000711103 6.56303 0.0135575 0.000740874 6.70276 -0.000669367 -0.000696643 -1.36566 -60.4164 85.4336 83.9493 0.000937961 -0.00141429 7.71927 -0.000279282 -0.000230531 6.54818 3.46375e-005 -5.54037e-005 -1.50288 -113.238 -19.6223 -35.4693 -61.8692 -7.76277 2.98559 -4.18998 22.4095 100.455 53.2883 49.6472 -18.16 158.656 1.25259 145.648 -0.000158152 -0.000168052 0.508958 2.27734e-005 -0.000303809 -25.7331 -0.000729798 -0.000945876 -178.917 -36.3135 -86.4925 37.049 0.00022321 -0.000402019 58.2371 -0.000107875 0.000469932 71.5774 -9.65121e-005 -0.00012197 177.672 -55.8238 -79.7036 23.6318 -4.83323e-005 2.15958e-005 52.0463 -0.000500098 0.000746112 70.0781 -4.35355e-005 -0.00032017 177.672 -73.2251 -74.7339 8.71761 6.95872e-005 -0.000205751 52.385 -0.000510147 0.00085425 70.4375 -3.79564e-005 -0.000182954 177.672 -83.6048 -70.0221 -0.847402 -0.000323986 0.000787248 54.8025 -0.000173055 0.000327111 70.1928 -0.000119591 6.09848e-005 177.672 
0 0 0 -90 -7.01671e-015 -180 0.31549 -10.9778 -116.352 -179.16 -1.66694 -105.275 -1.92437 -4.69373 -22.3747 -0.899745 -1.69994 44.783 -0.491045 0.0603321 56.6891 9.44678e-005 -8.64829e-005 -86.4974 178.292 5.52772 -109.526 -1.80996 -4.52937 -21.9324 3.41696 -7.17871 48.3317 0.58814 -0.149622 54.9057 -9.94816e-006 5.33392e-005 -86.4975 0.0430673 -0.192882 125.361 -0.218856 -4.3229 -9.60703 -7.75746 -3.87827 -11.0193 -1.39033 -0.256716 -3.79806 -3.73172 5.9688 24.52 -0.740415 9.70545 48.0102 92.4384 18.4164 -15.9135 67.1745 27.7353 14.6972 -2.68853 9.70723 86.3188 -3.13265 -74.0049 -22.1277 -157.929 -1.42962 159.003 0.000322333 -9.09789e-005 13.3258 0.000143831 -0.000117573 10.1427 0.000480247 -0.00127726 -0.000152607 75.8665 85.0818 -73.8869 -0.000335625 -0.000224306 2.24042 0.000720903 -0.000909598 -3.43236 -0.000618422 -0.000525284 -1.4387 9.58476 88.1128 6.60114 -4.90465e-006 -0.000311636 5.77692 0.000708218 -0.000791825 3.41255 -0.00039374 -0.000308856 -1.41389 -59.6827 87.5485 83.6566 -9.7007e-005 -0.000725152 7.2658 0.00737368 7.13331e-005 7.41114 -0.000666926 -0.000700401 -1.30867 -60.0812 85.3625 84.2901 0.000950138 -0.00140215 8.36536 -0.00025899 -0.000226995 7.25182 3.033e-005 -5.87075e-005 -1.42974 -113.238 -19.6223 -35.4693 -62.0355 -7.66655 2.56904 -3.98692 22.0521 100.216 53.4699 49.7616 -18.3981 158.659 1.25273 145.785 -0.000156296 -0.000173314 0.609531 2.95196e-005 -0.000302385 -25.1826 -0.00136157 -0.00192214 -178.741 -36.3305 -86.4907 37.3497 0.000221812 -0.000403308 58.5304 -0.000109898 0.000469893 71.9078 -9.65121e-005 -0.00012197 177.672 -55.9149 -79.7087 23.8381 -5.25919e-005 1.69341e-005 52.3195 -0.000502439 0.000745952 70.3884 -4.94958e-005 -9.14771e-005 177.672 -73.3078 -74.7395 8.92382 6.86828e-005 -0.000205437 52.65 -0.000515789 0.000853708 70.7396 -2.98977e-005 1.52462e-005 177.672 -83.6851 -70.0144 -0.636524 -0.00033091 0.000800245 55.0676 -0.000177695 0.00032935 70.4949 -0.000119591 6.09848e-005 177.672 
0 0 0 -90 -7.01671e-015 -180 0.44757 -11.0553 -116.348 -179.113 -1.54497 -105.356 -1.92756 -4.73403 -22.2363 -0.895846 -1.72431 44.7013 -0.491045 0.0602278 56.6891 9.44878e-005 -8.61531e-005 -86.4974 178.366 5.63207 -109.49 -1.8435 -4.57877 -22.0807 3.4558 -7.21044 48.4162 0.58814 -0.149676 54.9057 -1.00123e-005 5.46904e-005 -86.4975 0.042107 -0.18993 125.208 -0.251041 -4.29886 -9.4874 -7.78674 -3.87633 -10.8919 -1.41841 -0.245267 -3.72103 -3.74629 5.98492 24.4514 -0.72635 9.72512 47.9473 92.4384 18.4164 -15.9135 67.1292 27.7103 14.5416 -2.77671 10.6744 86.0753 -3.17428 -74.2199 -22.171 -157.836 -1.43769 159.703 0.000326508 -9.09366e-005 13.133 0.000150759 -0.000111013 10.2611 0.000480247 -0.00127726 -0.000152607 78.8621 84.9099 -75.4906 -0.000340183 -0.000231936 2.47587 0.000744972 -0.000901092 -2.59969 -0.000616359 -0.00052567 -1.36642 10.5899 88.2352 6.56949 -1.47217e-006 -0.000310805 6.35573 0.00072324 -0.000782602 4.16176 -0.000403063 -0.000362774 -1.33937 -59.294 87.5283 83.9828 -8.41968e-005 -0.000734828 7.9938 0.00119906 -0.000676614 8.11952 -0.000661919 -0.000702449 -1.25167 -59.7191 85.2887 84.6281 0.000964304 -0.00139354 9.01146 -0.000236437 -0.000225512 7.99031 2.27267e-005 -5.34151e-005 -1.3566 -113.238 -19.6223 -35.4693 -62.2255 -7.56295 2.11748 -3.75954 21.6619 99.931 53.6826 49.8941 -18.6764 158.662 1.25256 145.94 -0.000156144 -0.000168348 0.731078 2.9802e-005 -0.000292122 -24.5617 -0.00198735 -0.00289826 -178.565 -36.3448 -86.4891 37.5983 0.000225038 -0.000403146 58.7732 -0.000108467 0.00046805 72.1813 -9.65121e-005 -0.00012197 177.672 -55.9902 -79.7129 24.0091 -4.59761e-005 2.40422e-005 52.5456 -0.000505544 0.000745452 70.6452 -4.94958e-005 -9.14771e-005 177.672 -73.3749 -74.7461 9.09588 7.33266e-005 -0.000205068 52.8695 -0.000519236 0.0008556 70.9897 -2.98977e-005 1.52462e-005 177.672 -83.7516 -70.0078 -0.462008 -0.000332069 0.000800309 55.2871 -0.000177502 0.000329831 70.745 -0.000119591 6.09848e-005 177.672 
